<?xml version="1.0" encoding="UTF-8"?>
<svg id="Layer_2" data-name="Layer 2" xmlns="http://www.w3.org/2000/svg" viewBox="0 0 197.73 197.73">
  <defs>
    <style>
      .cls-1 {
        fill: #2b0165;
      }

      .cls-2 {
        fill: none;
      }

      .cls-3 {
        fill: #2b0184;
      }
    </style>
  </defs>
  <g id="Layer_1-2" data-name="Layer 1">
    <g>
      <g>
        <polygon class="cls-3" points="99.93 85.78 99.93 93.31 81.36 100.31 79.96 93.31 99.93 85.78"/>
        <polygon class="cls-3" points="99.93 99 99.93 105.5 99.91 105.5 99.91 105.4 83.59 111.55 82.41 105.61 99.91 99.01 99.93 99"/>
        <polygon class="cls-3" points="99.93 111.46 99.93 117.58 99.91 117.59 85.84 122.89 84.71 117.2 99.93 111.46"/>
        <polygon class="cls-3" points="99.93 123.55 99.93 130.73 88.27 135.12 86.94 128.45 99.91 123.56 99.93 123.55"/>
        <polygon class="cls-3" points="99.91 150.58 99.93 150.57 99.93 164.98 94.2 164.98 93.13 159.61 91.93 153.59 99.91 150.58"/>
        <polygon class="cls-3" points="99.93 138.48 99.93 145.06 99.91 145.05 99.91 144.96 90.9 148.36 89.7 142.34 99.93 138.48"/>
        <polygon class="cls-3" points="99.93 59.21 99.93 73.69 77.73 82.06 75.06 68.59 99.93 59.21"/>
        <polygon class="cls-1" points="99.93 85.78 99.93 93.31 118.51 100.31 119.9 93.31 99.93 85.78"/>
        <polygon class="cls-1" points="99.93 99 99.93 105.5 99.95 105.5 99.95 105.4 116.27 111.55 117.45 105.61 99.95 99.01 99.93 99"/>
        <polygon class="cls-1" points="99.93 111.46 99.93 117.58 99.95 117.59 114.02 122.89 115.15 117.2 99.93 111.46"/>
        <polygon class="cls-1" points="99.93 123.55 99.93 130.73 111.6 135.12 112.93 128.45 99.95 123.56 99.93 123.55"/>
        <polygon class="cls-1" points="99.95 150.58 99.93 150.57 99.93 164.98 105.67 164.98 106.74 159.61 107.93 153.59 99.95 150.58"/>
        <polygon class="cls-1" points="99.93 138.48 99.93 145.06 99.95 145.05 99.95 144.96 108.97 148.36 110.17 142.34 99.93 138.48"/>
        <polygon class="cls-1" points="99.93 59.21 99.93 73.69 122.13 82.06 124.81 68.59 99.93 59.21"/>
        <g>
          <polygon class="cls-3" points="87.47 148.73 75.63 153.84 74.12 147.82 85.96 142.7 86.06 143.11 87.47 148.73"/>
          <polygon class="cls-3" points="91.52 164.86 78.4 164.86 77.22 160.18 89.06 155.06 90.32 160.06 91.52 164.86"/>
          <polyline class="cls-3" points="84.14 136.73 82.44 129.95 70.6 135.06 72.3 141.84"/>
          <polygon class="cls-3" points="81.18 124.93 69.34 130.04 67.99 124.65 79.83 119.54 81.18 124.93"/>
          <polygon class="cls-3" points="78.04 112.43 66.21 117.55 65.59 113.83 65.24 112.42 77.08 107.31 77.58 109.3 78.04 112.43"/>
          <polygon class="cls-3" points="71.22 84 59.39 89.11 56.46 77.48 68.45 72.95 71.22 84"/>
          <polygon class="cls-3" points="75.69 101.78 63.85 106.89 62.55 101.74 62.06 99.77 73.9 94.65 74.54 97.22 75.69 101.78"/>
        </g>
        <g>
          <polygon class="cls-1" points="111.33 149.36 123.17 154.47 124.68 148.45 112.84 143.34 112.74 143.74 111.33 149.36"/>
          <polygon class="cls-1" points="107.28 165.5 120.4 165.5 121.58 160.81 109.73 155.7 108.48 160.7 107.28 165.5"/>
          <polyline class="cls-1" points="126.5 142.47 128.2 135.69 116.36 130.58 114.66 137.36"/>
          <polygon class="cls-1" points="117.61 125.56 129.46 130.68 130.81 125.29 118.97 120.17 117.61 125.56"/>
          <polygon class="cls-1" points="120.76 113.07 132.59 118.18 133.21 114.46 133.56 113.05 121.72 107.94 121.22 109.94 120.76 113.07"/>
          <polygon class="cls-1" points="127.58 84.63 139.41 89.74 142.34 78.11 130.35 73.58 127.58 84.63"/>
          <polygon class="cls-1" points="123.11 102.41 134.95 107.52 136.24 102.37 136.74 100.4 124.9 95.28 124.25 97.85 123.11 102.41"/>
        </g>
        <line class="cls-2" x1="71.22" y1="84" x2="59.39" y2="89.11"/>
      </g>
      <path class="cls-3" d="m178.52,85.92c-2.02-12.64-6.99-24.3-14.18-34.24l13.6-13.58-18.31-18.29-13.58,13.58c-9.97-7.2-21.61-12.18-34.24-14.2V0h-25.88v19.19c-12.64,2.02-24.28,7.01-34.24,14.2l-13.58-13.58-18.29,18.29,13.58,13.58c-7.2,9.95-12.16,21.61-14.18,34.24H0v25.88h19.21c2.02,12.64,6.99,24.3,14.18,34.24l-13.58,13.58,18.29,18.29,13.58-13.58c9.97,7.2,21.61,12.16,34.24,14.2v19.19h25.88v-19.19c12.64-2.04,24.28-7.01,34.24-14.2l13.58,13.58,18.31-18.29-13.6-13.6c7.2-9.93,12.16-21.59,14.18-34.22h19.21v-25.88h-19.21Zm-79.65,79.08c-36.54,0-66.15-29.61-66.15-66.15S62.34,32.72,98.88,32.72s66.13,29.61,66.13,66.13-29.61,66.15-66.13,66.15Z"/>
    </g>
  </g>
</svg>